<?xml version="1.0" standalone="no"?><!DOCTYPE svg PUBLIC "-//W3C//DTD SVG 1.1//EN" "http://www.w3.org/Graphics/SVG/1.1/DTD/svg11.dtd"><svg t="1774505885159" class="icon" viewBox="0 0 1024 1024" version="1.1" xmlns="http://www.w3.org/2000/svg" p-id="5841" xmlns:xlink="http://www.w3.org/1999/xlink" width="200" height="200"><path d="M896 597.333333H128a42.666667 42.666667 0 0 0-42.666667 42.666667v213.333333a42.666667 42.666667 0 0 0 42.666667 42.666667h768a42.666667 42.666667 0 0 0 42.666667-42.666667v-213.333333a42.666667 42.666667 0 0 0-42.666667-42.666667zM298.666667 810.666667H213.333333v-128h85.333334z m256 0h-85.333334v-128h85.333334z m256 0h-85.333334v-128h85.333334zM512 213.333333a298.666667 298.666667 0 0 1 205.653333 82.346667l52.906667-66.986667a381.44 381.44 0 0 0-517.973333 0L305.493333 298.666667A298.666667 298.666667 0 0 1 512 213.333333zM374.186667 384L426.666667 449.706667a165.546667 165.546667 0 0 1 85.333333-23.04 168.106667 168.106667 0 0 1 85.333333 22.613333L648.96 384A250.88 250.88 0 0 0 512 341.333333a256 256 0 0 0-137.813333 42.666667z" p-id="5842" fill="#0e932e"></path></svg>